<?xml version="1.0" encoding="UTF-8"?><svg id="Layer_2" xmlns="http://www.w3.org/2000/svg" viewBox="0 0 558.61 129.51"><g id="Logo"><polygon points="83.08 0 83.08 55.09 65.51 37.52 55.54 27.55 78.48 4.6 83.08 0" style="fill:#e7dfd6;"/><polygon points="83.55 129.51 57.07 103.03 28.54 74.49 0 103.03 0 5.14 48.58 54.44 83.55 89.93 83.55 129.51" style="fill:#e7dfd6;"/><path d="M173.73,50.36c-4.09-3.8-9.78-5.7-17.06-5.7s-12.98,1.9-17.06,5.7c-4.09,3.8-6.14,8.59-6.14,14.37s2.04,10.6,6.12,14.39c4.07,3.82,9.76,5.73,17.06,5.73s13-1.91,17.08-5.73c4.08-3.79,6.12-8.59,6.12-14.39s-2.04-10.57-6.12-14.37ZM168.67,75.91c-2.9,2.97-6.9,4.45-12,4.45s-9.09-1.48-11.99-4.45c-2.91-2.99-4.36-6.71-4.36-11.16s1.45-8.17,4.36-11.12c2.86-2.96,6.85-4.43,11.97-4.43s9.09,1.47,11.99,4.43c2.9,2.95,4.35,6.66,4.35,11.12s-1.44,8.17-4.32,11.16Z" style="fill:#e7dfd6;"/><path d="M257.42,45.24l-15.22,32.04-15.24-32.04h-6.75l19.57,39h4.8l19.59-39h-6.75Z" style="fill:#e7dfd6;"/><path d="M322.54,45.24h-4.7l-20.8,39h6.49l4.48-8.65h13.44l4.43-4.43h-15.6l9.94-19.17,8.99,17.53.84,1.64,2.27,4.43.66,1.28,3.82,7.37h6.46l-20.72-39Z" style="fill:#e7dfd6;"/><path d="M386.5,45.24v39h6.43v-39h-6.43Z" style="fill:#e7dfd6;"/><path d="M476.38,65.26c1.74-2.08,2.61-4.68,2.61-7.81,0-3.76-1.26-6.74-3.77-8.94-2.51-2.18-6.13-3.27-10.86-3.27h-22.47v39h6.33v-34.62h16.37c2.69,0,4.71.76,6.04,2.29,1.34,1.52,2.01,3.37,2.01,5.57s-.66,4.04-1.98,5.53c-1.36,1.52-3.36,2.27-6.01,2.27h-12.94l4.43,4.43h6l9.84,14.53h6.96l-10.05-14.9c3.27-.67,5.77-2.03,7.49-4.08Z" style="fill:#e7dfd6;"/><path d="M532.11,79.86v-13.76h23.05v-4.32h-23.05v-12.16h26.13v-4.38h-32.35v39h32.72v-4.38h-26.5Z" style="fill:#e7dfd6;"/></g></svg>